<?xml version="1.0" encoding="UTF-8" standalone="no"?>
<!-- Created with Inkscape (http://www.inkscape.org/) -->

<svg
   width="1920"
   height="1080"
   viewBox="0 0 1920 1080"
   version="1.1"
   id="svg5"
   xml:space="preserve"
   inkscape:export-filename="bitmap.svg"
   inkscape:export-xdpi="96"
   inkscape:export-ydpi="96"
   xmlns:inkscape="http://www.inkscape.org/namespaces/inkscape"
   xmlns:sodipodi="http://sodipodi.sourceforge.net/DTD/sodipodi-0.dtd"
   xmlns:xlink="http://www.w3.org/1999/xlink"
   xmlns="http://www.w3.org/2000/svg"
   xmlns:svg="http://www.w3.org/2000/svg"><sodipodi:namedview
     id="namedview7"
     pagecolor="#ffffff"
     bordercolor="#111111"
     borderopacity="1"
     inkscape:showpageshadow="0"
     inkscape:pageopacity="0"
     inkscape:pagecheckerboard="1"
     inkscape:deskcolor="#d1d1d1"
     inkscape:document-units="px"
     showgrid="false"
     inkscape:zoom="0.68541667"
     inkscape:cx="795.86626"
     inkscape:cy="539.81763"
     inkscape:window-width="1920"
     inkscape:window-height="1011"
     inkscape:window-x="0"
     inkscape:window-y="32"
     inkscape:window-maximized="1"
     inkscape:current-layer="layer1" /><defs
     id="defs2"><inkscape:path-effect
       effect="spiro"
       id="path-effect13492"
       is_visible="true"
       lpeversion="1" /><inkscape:path-effect
       effect="spiro"
       id="path-effect13484"
       is_visible="true"
       lpeversion="1" /><inkscape:path-effect
       effect="spiro"
       id="path-effect12992"
       is_visible="true"
       lpeversion="1" /><inkscape:path-effect
       effect="spiro"
       id="path-effect12988"
       is_visible="true"
       lpeversion="1" /><linearGradient
       inkscape:collect="always"
       id="linearGradient1064"><stop
         style="stop-color:#95ff79;stop-opacity:1;"
         offset="0"
         id="stop1060" /><stop
         style="stop-color:#e0ffb5;stop-opacity:1;"
         offset="1"
         id="stop1062" /></linearGradient><linearGradient
       inkscape:collect="always"
       xlink:href="#linearGradient1064"
       id="linearGradient1068"
       x1="-11.913632"
       y1="544.15222"
       x2="1926.5809"
       y2="544.15222"
       gradientUnits="userSpaceOnUse" /></defs><g
     inkscape:label="Capa 1"
     inkscape:groupmode="layer"
     id="layer1"
     style="display:inline"><rect
       style="fill:url(#linearGradient1068);fill-opacity:1;stroke-width:1.96256"
       id="rect338"
       width="1938.4945"
       height="1091.2966"
       x="-11.913632"
       y="-1.4960774" /><path
       style="fill:#00c44e;fill-opacity:0.422624"
       d="m -60.897517,154.94423 c 112.459533,-1.22986 224.918067,-2.46071 337.375597,-3.69257 112.45754,-1.23185 159.40948,75.35547 239.11273,113.03171 79.70324,37.67623 356.22654,-83.88762 534.33829,-125.83293 178.1118,-41.945308 408.0466,94.83003 612.0684,142.24354 204.0218,47.41352 319.4904,7.57471 408.6265,-100.75614 24.9212,-30.28772 37.1182,-94.133096 5.64,-117.532469 C 1992.466,0.1140923 1879.4109,132.10343 1780.9829,166.95096 1682.5548,201.79849 1479.0538,104.09185 1328.0877,72.660791 1177.1217,41.229736 1113.6191,49.684493 1006.3833,38.194843 899.14746,26.705194 773.46064,121.80432 656.99783,163.60755 540.53501,205.41079 408.97499,85.559896 284.96207,46.534569 160.94914,7.5092405 46.639607,51.629663 -72.523123,54.17571 c -58.835447,2.72252 -158.962857,96.05182 11.625606,100.76852 z"
       id="path12930"
       sodipodi:nodetypes="cssssssssssscc" /><path
       style="fill:#00c44e;fill-opacity:1"
       d="m -118.29285,894.33421 c 128.2532274,-34.32382 263.7124,-65.45015 392.40012,-32.79308 64.29088,16.31509 123.48054,47.8376 184.4522,73.9519 60.97165,26.1143 126.52812,47.26775 192.55494,40.94652 61.20854,-5.85995 117.46832,-34.73452 172.38237,-62.39806 54.91406,-27.66353 112.18879,-55.16654 173.61586,-57.91254 37.71046,-1.68579 75.35986,6.15165 111.05256,18.43776 35.6927,12.2861 69.6844,28.9691 103.5915,45.55911 33.907,16.59001 67.9518,33.17968 103.7132,45.26453 35.7614,12.08484 73.4955,19.6063 111.1845,17.49576 72.9416,-4.08464 138.4577,-43.11706 204.4298,-74.49918 32.9861,-15.69105 67.0753,-29.75968 102.9355,-36.71195 35.8603,-6.95228 73.8111,-6.47888 108.014,6.34506 34.6324,12.98496 63.4718,37.68198 96.0852,55.12841 16.3066,8.72321 33.7984,15.69008 52.1452,18.01327 18.3468,2.32319 37.6668,-0.2608 53.6512,-9.56141 20.0462,-11.66396 33.4538,-33.70017 35.3987,-56.81108 1.9449,-23.1109 -7.3387,-46.74824 -23.9307,-62.95329 -13.6473,-13.32907 -31.5298,-21.55453 -49.7929,-27.06556 -18.2632,-5.51103 -37.1699,-8.54233 -55.7165,-13.00758 -32.6201,-7.85358 -63.9849,-20.10499 -95.8896,-30.48989 -31.9046,-10.38491 -64.8486,-18.98039 -98.4005,-19.13154 -43.5274,-0.19609 -86.0161,13.86373 -125.2815,32.64949 -39.2653,18.78577 -76.0442,42.33709 -114.4593,62.80543 -33.2667,17.72518 -68.7014,33.38135 -106.3074,35.9584 -26.7656,1.83418 -53.7006,-3.08621 -79.0721,-11.80653 -25.3716,-8.72032 -49.3029,-21.17652 -72.4742,-34.6988 -46.3426,-27.04455 -90.731,-58.84648 -141.7336,-75.51322 -46.0335,-15.04293 -95.7744,-16.97545 -143.6365,-9.58724 -47.86214,7.38821 -93.98255,23.86665 -137.66485,44.77662 -42.16221,20.18233 -82.2782,44.52218 -124.93898,63.62811 -42.66078,19.10593 -88.81564,33.01606 -135.49706,30.60292 -52.59526,-2.71885 -101.92367,-25.84293 -147.56398,-52.1225 -45.64031,-26.27957 -89.56642,-56.31335 -138.7518,-75.14027 -96.19112,-36.81952 -205.220708,-27.3245 -302.748117,5.79366 -40.081931,13.61094 -78.819125,31.03917 -119.196333,43.74744 -20.3162,6.39429 -41.58774,11.8644 -58.46506,24.85637 -8.43865,6.49599 -15.60259,14.87974 -19.61923,24.74257 -4.01665,9.86282 -4.693,21.26334 -0.78023,31.16783 3.25041,8.22783 9.51529,15.09909 17.03401,19.76077 7.51872,4.66168 16.23896,7.19331 25.04212,8.06892 17.60633,1.75122 35.14575,-2.92296 52.23746,-7.49713 z"
       id="path12986"
       inkscape:path-effect="#path-effect12988"
       inkscape:original-d="m -118.29285,894.33421 c 31.436856,6.77653 261.60108,-21.86105 392.40012,-32.79308 130.79903,-10.93203 251.33909,76.59995 377.00714,114.89842 125.66805,38.29845 230.66649,-80.20606 345.99823,-120.3106 115.33176,-40.10453 286.36216,84.50578 429.54176,126.75716 143.1795,42.25139 276.9205,-69.90971 415.3793,-104.86607 138.4587,-34.95636 134.5887,42.38785 201.8816,63.58027 67.2929,21.19243 7.6463,-79.84191 11.468,-119.76437 3.8217,-39.92246 -70.3386,-26.71443 -105.5094,-40.07314 -35.1707,-13.35872 -129.5257,-33.07995 -194.2901,-49.62143 -64.7643,-16.54147 -159.8262,63.63761 -239.7408,95.45492 -79.9147,31.81731 -70.8706,23.97326 -106.3074,35.9584 -35.4368,11.98513 -195.519,-81.3447 -293.2799,-122.01855 -97.761,-40.67385 -187.53325,23.46058 -281.30135,35.18938 -93.7681,11.72879 -173.62303,62.82169 -260.43604,94.23103 C 487.7053,902.3659 383.64213,786.1157 288.20253,743.69378 c -95.43959,-42.42193 -201.831078,3.86344 -302.748117,5.79366 -100.917033,1.93022 -79.463226,29.16596 -119.196333,43.74744 -39.73312,14.58149 -52.57535,53.84551 -78.86452,80.76677 -26.28917,26.92125 62.87673,13.55604 94.31359,20.33256 z" /><path
       style="fill:#00c44e;fill-opacity:0.721836"
       d="m -137.86851,382.09056 c 3.19626,-23.52998 17.00524,-44.98563 35.75321,-59.55923 18.747974,-14.5736 42.106374,-22.56177 65.731409,-24.95633 47.25007,-4.78911 93.80699,11.82229 138.037811,29.11793 92.86775,36.31421 184.92105,77.1004 282.84254,95.92918 119.4116,22.96099 242.95052,12.27041 362.51793,-9.86494 57.74691,-10.6906 115.17583,-24.04823 173.70079,-28.92921 58.52495,-4.88097 118.97112,-0.90078 173.07772,21.93501 40.0752,16.91383 75.1697,43.45705 111.3132,67.65943 36.1434,24.20237 74.8546,46.70283 117.7712,53.79276 51.0607,8.43537 103.1739,-5.75017 151.3583,-24.63457 48.1843,-18.88441 94.7654,-42.68714 145.0748,-54.82461 94.3405,-22.76027 193.0087,-2.79496 290.0455,-1.3717 13.8959,0.20381 28.18,0.0917 41.1364,5.11863 6.4782,2.51347 12.5293,6.33602 17.0847,11.58312 4.5555,5.24709 7.5396,11.9778 7.7056,18.9245 0.209,8.74534 -4.1081,17.26851 -10.6154,23.11484 -6.5073,5.84633 -15.0171,9.16895 -23.6766,10.40868 -17.3191,2.47946 -34.6446,-2.93421 -51.7251,-6.7232 -30.7881,-6.82978 -62.5282,-8.46677 -94.0581,-7.81808 -86.3122,1.77576 -171.3664,20.44424 -254.9248,42.14529 -63.7201,16.54881 -127.534,35.00823 -193.2344,39.19886 -86.0703,5.4899 -173.5332,-14.33174 -249.0768,-55.94189 -31.75,-17.48823 -61.7609,-38.86734 -96.0995,-50.47611 -52.93669,-17.89619 -111.19327,-10.82468 -165.1163,3.83388 -53.92303,14.65855 -105.77806,36.63586 -160.32833,48.75339 -62.41776,13.86518 -127.56317,14.48625 -190.57431,3.63192 -90.66041,-15.6172 -175.41834,-54.25193 -260.61235,-88.96775 -36.6985,-14.95432 -73.97426,-29.32613 -113.01801,-36.10827 -39.043753,-6.78213 -80.346183,-5.58377 -116.8469648,9.84687 -17.9186912,7.5751 -34.3804612,18.42216 -52.6581682,25.08451 -9.138854,3.33118 -18.750174,5.59496 -28.476711,5.69426 -9.726538,0.0993 -19.593326,-2.04597 -27.943616,-7.03477 -9.60297,-5.7372 -16.83391,-15.07037 -20.82373,-25.52091 -3.98983,-10.45054 -4.84761,-21.95702 -3.34192,-33.04149 z"
       id="path12990"
       inkscape:path-effect="#path-effect12992"
       inkscape:original-d="m -137.86851,382.09056 c -8.05622,-19.52181 159.682621,-36.93076 239.52243,-55.39763 79.83981,-18.46688 188.5627,63.95379 282.84254,95.92918 94.27985,31.9754 241.67962,-6.57562 362.51793,-9.86494 120.83831,-3.28931 231.18665,-4.6618 346.77851,-6.9942 115.5918,-2.33241 152.7239,80.96913 229.0844,121.45219 76.3605,40.48307 197.6231,-52.97178 296.4331,-79.45918 98.81,-26.48739 193.3647,-0.91346 290.0455,-1.3717 96.6808,-0.45823 43.9521,23.75184 65.9267,35.62625 21.9745,11.87442 -57.3437,17.86788 -86.0171,26.80032 -28.6733,8.93244 -62.7044,-5.21105 -94.0581,-7.81808 -31.3537,-2.60703 -169.9489,28.09786 -254.9248,42.14529 -84.976,14.04743 -128.8219,26.13358 -193.2344,39.19886 -64.4124,13.06529 -166.0502,-37.29359 -249.0768,-55.94189 -83.0267,-18.6483 -64.0653,-33.64974 -96.0995,-50.47611 -32.03414,-16.82637 -216.96209,35.05918 -325.44463,52.58727 -108.48255,17.52808 -127.04854,2.42228 -190.57431,3.63192 -63.52576,1.20964 -173.74057,-59.31084 -260.61235,-88.96775 -86.87179,-29.65692 -153.242317,-17.5066 -229.8649748,-26.2614 -76.6226572,-8.7548 -72.7179992,15.83033 -109.0784952,23.744 -36.3605,7.91367 -16.10944,-39.0406 -24.16565,-58.5624 z" /><path
       style="fill:#00c44e;fill-opacity:0.0838774;stroke-width:0.608084"
       d="m -76.947387,661.90372 c 58.266955,-33.02154 127.024671,-43.77925 193.969457,-41.81582 66.9448,1.96343 132.87835,15.96578 198.43066,29.69003 124.1988,26.00267 250.4243,51.33234 377.00714,42.4856 116.12905,-8.11613 229.58657,-44.8784 345.99823,-44.48684 144.3777,0.48563 285.6059,58.16769 429.5418,46.87057 70.2023,-5.50998 137.9575,-27.27828 206.8919,-41.65841 68.9343,-14.38013 142.2727,-21.08297 208.4874,2.88244 34.187,12.37348 65.3434,32.55455 100.2609,42.68508 17.4587,5.06527 35.9077,7.53106 53.8968,4.91239 17.989,-2.61867 35.5157,-10.61824 47.7239,-24.08761 5.3848,-5.94107 9.712,-12.93938 11.948,-20.63954 2.2361,-7.70017 2.2987,-16.12395 -0.48,-23.64533 -3.3905,-9.17756 -10.8549,-16.53384 -19.612,-20.89683 -8.7572,-4.36299 -18.7228,-5.9096 -28.5035,-5.66032 -19.5613,0.49856 -38.2161,7.85302 -57.3939,11.73944 -32.058,6.4966 -65.2919,3.22989 -97.5262,-2.32635 -32.2343,-5.55624 -64.1607,-13.38509 -96.7639,-16.02199 -80.8403,-6.53825 -160.2933,18.98658 -239.7408,35.29604 -35.0324,7.19166 -70.5506,12.63297 -106.3074,13.29621 -99.0756,1.83771 -194.9537,-32.81719 -293.2799,-45.11838 -93.4864,-11.6957 -188.4644,-3.04394 -281.30139,13.01186 -86.45999,14.95292 -172.70619,36.39022 -260.43604,34.84348 -96.84022,-1.70736 -190.74674,-31.32535 -286.31578,-47.05752 -100.11657,-16.48076 -203.22748,-17.62096 -302.748117,2.1423 -39.464872,7.83711 -79.059368,18.99072 -119.19633,16.17635 -15.881023,-1.11356 -31.952763,-4.40329 -47.561053,-1.26828 -7.80414,1.5675 -15.39867,4.81574 -21.2755,10.18459 -5.87683,5.36886 -9.89627,12.98962 -10.02797,20.94854 -0.0802,4.8466 1.26848,9.68447 3.68744,13.88502 2.41896,4.20054 5.88839,7.76657 9.92107,10.45606 8.06538,5.379 18.18149,7.14396 27.83197,6.22087 9.65048,-0.9231 18.9046,-4.37035 27.5772,-8.70276 8.672606,-4.3324 16.861685,-9.56097 25.295913,-14.34089 z"
       id="path13480"
       inkscape:path-effect="#path-effect13484"
       inkscape:original-d="m -76.947387,661.90372 c 31.43685,2.50573 261.601077,-8.08349 392.400117,-12.12579 130.79903,-4.04229 251.33909,28.32411 377.00714,42.4856 125.66805,14.16149 230.66649,-29.65752 345.99823,-44.48684 115.3318,-14.82931 286.3622,31.24742 429.5418,46.87057 143.1795,15.62315 276.9205,-25.85028 415.3793,-38.77597 138.4587,-12.9257 134.5887,15.67361 201.8816,23.50986 67.2929,7.83625 7.6463,-29.52288 11.468,-44.28487 3.8217,-14.76199 -70.3386,-9.8781 -105.5094,-14.81771 -35.1707,-4.93961 -129.5257,-12.23186 -194.2901,-18.34834 -64.7643,-6.11649 -159.8262,23.53106 -239.7408,35.29604 -79.9147,11.76498 -70.8706,8.86451 -106.3074,13.29621 -35.4368,4.4317 -195.519,-30.07855 -293.2799,-45.11838 -97.761,-15.03983 -187.53329,8.67494 -281.30139,13.01186 -93.7681,4.33691 -173.62303,23.22936 -260.43604,34.84348 -86.81301,11.61413 -190.87618,-31.37131 -286.31578,-47.05752 -95.43959,-15.68621 -201.83108,1.42857 -302.748117,2.1423 -100.91703,0.71373 -79.46323,10.7846 -119.19633,16.17635 -39.733123,5.39174 -52.575353,19.91027 -78.864523,29.86485 -26.28917,9.95458 62.87673,5.01257 94.313593,7.5183 z" /><path
       style="fill:#ff004e;fill-opacity:0.0853061"
       d="m -70.358716,987.33149 c 112.459533,-1.22986 224.918066,-2.46071 337.375596,-3.69257 112.45754,-1.23185 159.40948,75.35548 239.11273,113.03168 79.70324,37.6763 356.22654,-83.8876 534.33829,-125.8329 178.1118,-41.94531 408.0466,94.83 612.0684,142.2435 204.0218,47.4136 319.4904,7.5748 408.6265,-100.7561 24.9212,-30.28772 37.1182,-94.13309 5.64,-117.53247 -83.798,-62.29128 -196.8531,69.69806 -295.2811,104.54559 -98.4281,34.84758 -301.9291,-62.85911 -452.8952,-94.29017 C 1167.6605,873.617 1104.1579,882.07175 996.9221,870.5821 889.68626,859.09246 763.99944,954.19158 647.53663,995.99481 531.07381,1037.7981 399.51379,917.94716 275.50087,878.92183 151.48794,839.8965 37.178408,884.01692 -81.984322,886.56297 c -58.835448,2.72252 -158.962858,96.05182 11.625606,100.76852 z"
       id="path13486"
       sodipodi:nodetypes="cssssssssssscc" /><path
       style="fill:#00124e;fill-opacity:0.0717222"
       d="m -128.65167,215.62732 c 3.19626,-23.52998 17.00524,-44.98563 35.753211,-59.55923 18.747969,-14.57361 42.106368,-22.56178 65.731404,-24.95634 47.25007,-4.78912 93.806993,11.82228 138.037815,29.11792 92.86775,36.31421 184.92105,77.10041 282.84254,95.9292 119.4116,22.961 242.95052,12.27041 362.51793,-9.86494 57.74692,-10.69061 115.17585,-24.04824 173.70082,-28.92921 58.52496,-4.88098 118.97115,-0.90079 173.07775,21.93501 40.0752,16.91384 75.1697,43.45705 111.3132,67.65943 36.1434,24.20237 74.8546,46.70283 117.7712,53.79276 51.0607,8.43537 103.1739,-5.75017 151.3583,-24.63457 48.1843,-18.88441 94.7654,-42.68714 145.0748,-54.82461 94.3405,-22.76026 193.0087,-2.79496 290.0455,-1.3717 13.8959,0.20381 28.18,0.0917 41.1364,5.11863 6.4782,2.51347 12.5293,6.33602 17.0847,11.58312 4.5555,5.24709 7.5396,11.9778 7.7056,18.9245 0.209,8.74534 -4.1081,17.26851 -10.6154,23.11484 -6.5073,5.84633 -15.0171,9.16895 -23.6766,10.40868 -17.3191,2.47946 -34.6446,-2.93421 -51.7251,-6.7232 -30.7881,-6.82978 -62.5282,-8.46677 -94.0581,-7.81808 -86.3122,1.77576 -171.3664,20.44424 -254.9248,42.14529 -63.7201,16.54881 -127.534,35.00823 -193.2344,39.19886 -86.0703,5.4899 -173.5332,-14.33174 -249.0768,-55.94189 -31.75,-17.48823 -61.7609,-38.86733 -96.0995,-50.47611 -52.9367,-17.89619 -111.19329,-10.82468 -165.11633,3.83387 -53.92304,14.65856 -105.77808,36.63587 -160.32836,48.7534 -62.41776,13.86517 -127.56317,14.48625 -190.57431,3.63192 -90.66041,-15.6172 -175.41834,-54.25193 -260.61235,-88.96775 -36.6985,-14.95432 -73.97426,-29.32613 -113.01801,-36.10827 -39.043749,-6.78213 -80.346178,-5.58377 -116.8469583,9.84687 -17.9186917,7.5751 -34.3804627,18.42216 -52.6581717,25.08451 -9.138855,3.33118 -18.750175,5.59496 -28.476713,5.69426 -9.726538,0.0993 -19.593331,-2.04597 -27.943617,-7.03477 -9.60297,-5.7372 -16.83391,-15.07037 -20.82373,-25.52091 -3.98983,-10.45054 -4.84761,-21.95702 -3.34192,-33.04149 z"
       id="path13488"
       inkscape:path-effect="#path-effect13492"
       inkscape:original-d="m -128.65167,215.62732 c -8.05622,-19.52185 159.682622,-36.93075 239.52243,-55.39765 79.83981,-18.4669 188.5627,63.95381 282.84254,95.9292 94.27985,31.9754 241.67962,-6.57562 362.51793,-9.86494 120.83831,-3.28931 231.18665,-4.6618 346.77857,-6.9942 115.5918,-2.33241 152.7239,80.96913 229.0844,121.45219 76.3605,40.48307 197.6231,-52.97178 296.4331,-79.45918 98.81,-26.48739 193.3647,-0.91346 290.0455,-1.3717 96.6808,-0.45823 43.9521,23.75184 65.9267,35.62625 21.9745,11.87442 -57.3437,17.86788 -86.0171,26.80032 -28.6733,8.93244 -62.7044,-5.21105 -94.0581,-7.81808 -31.3537,-2.60703 -169.9489,28.09786 -254.9248,42.14529 -84.976,14.04743 -128.8219,26.13358 -193.2344,39.19886 -64.4124,13.06529 -166.0502,-37.29359 -249.0768,-55.94189 -83.0267,-18.6483 -64.0653,-33.64974 -96.0995,-50.47611 -32.0342,-16.82637 -216.96215,35.05918 -325.44469,52.58727 -108.48255,17.52808 -127.04854,2.42228 -190.57431,3.63192 -63.52576,1.20964 -173.74057,-59.31084 -260.61235,-88.96775 -86.87179,-29.65692 -153.242318,-17.5066 -229.8649683,-26.2614 -76.6226597,-8.7548 -72.7179997,15.83033 -109.0785017,23.744 -36.3605,7.91367 -16.10944,-39.0406 -24.16565,-58.5624 z" /></g></svg>
