<?xml version="1.0" encoding="UTF-8" standalone="no"?>
<!-- Created with Inkscape (http://www.inkscape.org/) -->

<svg
   width="16.0px"
   height="16.0px"
   viewBox="0 0 16.0 16.0"
   version="1.1"
   id="SVGRoot"
   xmlns="http://www.w3.org/2000/svg"
   xmlns:svg="http://www.w3.org/2000/svg">
  <defs
     id="defs491" />
  <g
     id="layer2">
    <path
       id="path761-9"
       style="fill:#00b789;fill-opacity:1;stroke:none;stroke-width:0.178;stroke-linecap:round;stroke-linejoin:round;stroke-dasharray:0.712, 0.356;stroke-dashoffset:0;stroke-opacity:1;paint-order:normal"
       d="M 13.542969 4.8847656 C 13.369148 4.8862846 13.346643 4.8970906 11.841797 4.9003906 C 10.33695 4.9036886 7.3490252 4.8992706 5.6875 4.9003906 C 4.0259749 4.9015091 3.6899548 4.9079785 3.5195312 5.078125 C 3.3491077 5.2482715 3.3453504 5.580842 3.3515625 5.9042969 C 3.3577746 6.2277519 3.3752287 6.5412838 3.5488281 6.7050781 C 3.7224275 6.8688725 4.0508454 6.8839463 5.7207031 6.8886719 C 7.3905609 6.8934019 10.40068 6.8883456 12.066406 6.8847656 C 13.732133 6.8811897 14.053305 6.8793623 14.210938 6.7167969 C 14.368579 6.5542314 14.364981 6.2305094 14.363281 5.9003906 C 14.361611 5.5702719 14.361914 5.2343032 14.201172 5.0625 C 14.040431 4.8906926 13.71679 4.8832456 13.542969 4.8847656 z M 13.542969 7.953125 C 13.369148 7.954644 13.344689 7.9634969 11.839844 7.9667969 C 10.334997 7.9700949 7.3490252 7.96763 5.6875 7.96875 C 4.0259749 7.9698685 3.6899548 7.9763378 3.5195312 8.1464844 C 3.3491077 8.3166309 3.3453504 8.6492014 3.3515625 8.9726562 C 3.3577746 9.2961112 3.3732756 9.6096436 3.546875 9.7734375 C 3.7204744 9.9372315 4.0508455 9.9523054 5.7207031 9.9570312 C 7.3905609 9.9617612 10.400681 9.956705 12.066406 9.953125 C 13.732133 9.9495491 14.053305 9.9477217 14.210938 9.7851562 C 14.368579 9.6225908 14.363028 9.2969156 14.361328 8.9667969 C 14.359658 8.6366781 14.361914 8.3026626 14.201172 8.1308594 C 14.040431 7.9590519 13.71679 7.951605 13.542969 7.953125 z M 13.498047 11.138672 C 13.324227 11.140192 13.301725 11.149044 11.796875 11.152344 C 10.292024 11.155684 7.3041034 11.153197 5.6425781 11.154297 C 3.9810529 11.155416 3.6469856 11.161884 3.4765625 11.332031 C 3.3061437 11.502178 3.3009381 11.833867 3.2988281 12 C 3.2967181 12.166133 3.2963675 12.166897 3.3046875 12.324219 C 3.3130106 12.481542 3.3303069 12.795191 3.5039062 12.958984 C 3.6775056 13.122778 4.0059235 13.137893 5.6757812 13.142578 C 7.345639 13.147378 10.355759 13.142272 12.021484 13.138672 C 13.68721 13.135093 14.008383 13.133271 14.166016 12.970703 C 14.323657 12.808136 14.320059 12.482462 14.318359 12.152344 C 14.316689 11.822225 14.316992 11.486256 14.15625 11.314453 C 13.995509 11.142666 13.671868 11.137172 13.498047 11.138672 z " />
  </g>
  <g
     id="layer1">
    <path
       id="path761"
       style="fill:#6affac;fill-opacity:0.99178904;stroke:none;stroke-width:0.178;stroke-linecap:round;stroke-linejoin:round;stroke-dasharray:none;stroke-dashoffset:0;stroke-opacity:1;paint-order:normal"
       d="M 12.845703 4.2128906 C 12.671882 4.2144096 12.649378 4.2252156 11.144531 4.2285156 C 9.6396854 4.2318136 6.6537127 4.2273956 4.9921875 4.2285156 C 3.3306624 4.2296341 2.9946423 4.2361035 2.8242188 4.40625 C 2.6537952 4.5763965 2.6500379 4.908967 2.65625 5.2324219 C 2.6624621 5.5558769 2.6779631 5.869409 2.8515625 6.0332031 C 3.0251618 6.1969974 3.355533 6.2120712 5.0253906 6.2167969 C 6.6952484 6.2215269 9.7053683 6.2164706 11.371094 6.2128906 C 13.03682 6.2093147 13.357992 6.2074873 13.515625 6.0449219 C 13.673267 5.8823564 13.667716 5.5586344 13.666016 5.2285156 C 13.664346 4.8983969 13.666601 4.5624282 13.505859 4.390625 C 13.345119 4.2188176 13.019524 4.2113706 12.845703 4.2128906 z M 12.845703 7.28125 C 12.671882 7.282769 12.649377 7.2916219 11.144531 7.2949219 C 9.639685 7.2982199 6.6517596 7.295755 4.9902344 7.296875 C 3.3287092 7.2979935 2.9926892 7.3025097 2.8222656 7.4726562 C 2.6518421 7.6428028 2.6480848 7.9773264 2.6542969 8.3007812 C 2.660509 8.6242362 2.6779631 8.9377684 2.8515625 9.1015625 C 3.0251618 9.2653567 3.3535799 9.2804306 5.0234375 9.2851562 C 6.6932952 9.2898862 9.7034148 9.28483 11.369141 9.28125 C 13.034866 9.2776741 13.356039 9.2758467 13.513672 9.1132812 C 13.671314 8.9507158 13.665762 8.6250406 13.664062 8.2949219 C 13.662393 7.9648031 13.664648 7.6288345 13.503906 7.4570312 C 13.343165 7.2852238 13.019524 7.27973 12.845703 7.28125 z M 12.802734 10.466797 C 12.628915 10.468307 12.604461 10.477169 11.099609 10.480469 C 9.5947583 10.483809 6.6087909 10.481322 4.9472656 10.482422 C 3.2857404 10.483541 2.94972 10.488056 2.7792969 10.658203 C 2.608878 10.82835 2.6036725 11.161992 2.6015625 11.328125 C 2.5994525 11.494258 2.601055 11.495022 2.609375 11.652344 C 2.6176981 11.809667 2.6330413 12.123316 2.8066406 12.287109 C 2.98024 12.4509 3.310611 12.466003 4.9804688 12.470703 C 6.6503265 12.475503 9.6604467 12.468444 11.326172 12.464844 C 12.991897 12.461265 13.31307 12.461396 13.470703 12.298828 C 13.628345 12.136261 13.622794 11.810587 13.621094 11.480469 C 13.619424 11.15035 13.621679 10.814381 13.460938 10.642578 C 13.300197 10.470791 12.976555 10.465297 12.802734 10.466797 z " />
  </g>
</svg>
